<svg width="23" height="23" viewBox="0 0 23 23" fill="none" xmlns="http://www.w3.org/2000/svg">
<path fill-rule="evenodd" clip-rule="evenodd" d="M11.9348 0.780212C5.85052 0.780212 0.91629 5.70822 0.91629 11.7783C0.91629 17.8521 5.85052 22.7802 11.9348 22.7802C17.9821 22.7802 22.9163 17.8521 22.9163 11.7783C22.9163 5.70822 17.9821 0.780212 11.9348 0.780212ZM11.9348 2.94574C16.7949 2.94574 20.7645 6.90222 20.7645 11.7783C20.7645 16.6581 16.7949 20.6147 11.9348 20.6147C7.03771 20.6147 3.06806 16.6581 3.06806 11.7783C3.06806 6.90222 7.03771 2.94574 11.9348 2.94574ZM12.7881 16.7398H10.8219V18.7087H12.7881V16.7398ZM10.0428 9.53495C10.0428 8.56343 10.8219 7.77362 11.7864 7.77362C12.751 7.77362 13.5672 8.56343 13.5672 9.53495C13.5672 10.0578 13.3075 10.4212 13.0107 10.729C12.751 11.0256 12.4171 11.2778 12.1203 11.5299C11.3412 12.1974 10.7848 12.9056 10.7848 13.7992V14.8042H12.7881V13.7992C12.7881 13.6101 12.9365 13.4915 13.0849 13.3506C13.3075 13.1355 13.5672 12.9316 13.8269 12.7091C14.7173 11.9415 15.5706 11.0145 15.5706 9.53495C15.5706 7.45472 13.864 5.76387 11.7864 5.76387C9.70887 5.76387 8.00229 7.45472 8.00229 9.53495V10.5399H10.0428V9.53495Z" fill="white"/>
</svg>
