<svg width="22" height="23" viewBox="0 0 22 23" fill="none" xmlns="http://www.w3.org/2000/svg">
<path fill-rule="evenodd" clip-rule="evenodd" d="M21.2034 20.6143C21.2034 20.5391 21.1276 20.479 21.0517 20.479C19.4966 20.479 4.58966 20.479 2.99655 20.479C2.92069 20.479 2.88276 20.5391 2.88276 20.6143C2.88276 21.0055 2.88276 22.1488 2.88276 22.5399C2.88276 22.6151 2.92069 22.6752 2.99655 22.6752C4.58966 22.6752 19.4966 22.6752 21.0517 22.6752C21.1276 22.6752 21.2034 22.6151 21.2034 22.5399V20.6143ZM21.2034 14.6499C21.2034 14.5747 21.1276 14.5145 21.0517 14.5145C19.4966 14.5145 4.58966 14.5145 2.99655 14.5145C2.92069 14.5145 2.88276 14.5747 2.88276 14.6499V16.5754C2.88276 16.6506 2.92069 16.7108 2.99655 16.7108C4.58966 16.7108 19.4966 16.7108 21.0517 16.7108C21.1276 16.7108 21.2034 16.6506 21.2034 16.5754C21.2034 16.1843 21.2034 15.041 21.2034 14.6499ZM10.2034 8.37332C10.2414 8.33195 10.3172 8.30942 10.3552 8.30942C11.2276 8.30942 18.5103 8.30942 18.5103 8.30942C19.1931 8.30942 19.7621 7.75287 19.7621 7.0609C19.7621 6.3727 19.1931 5.81231 18.5103 5.81231C18.5103 5.81231 12.0241 5.81231 11 5.81231C10.9621 5.81231 10.9241 5.79727 10.9241 5.7747C10.8862 5.74838 10.8862 5.71453 10.8862 5.68069C10.8862 5.28958 10.8862 4.14261 10.8862 3.7515C10.8862 3.71765 10.8862 3.68381 10.9241 3.65748C10.9241 3.63492 10.9621 3.61988 11 3.61988C12.0241 3.61988 18.5103 3.61988 18.5103 3.61988C20.4448 3.61988 22 5.16176 22 7.0609C22 8.96381 20.4448 10.5057 18.5103 10.5057C18.5103 10.5057 9.86207 10.5019 8.3069 10.4981C8.26897 10.4981 8.23103 10.4718 8.23103 10.4342C8.1931 10.4004 8.1931 10.359 8.23103 10.3289C8.68621 9.88136 9.93793 8.65913 10.2034 8.37332ZM5.12069 3.44308C5.08276 3.44308 5.04483 3.4318 5.04483 3.40547C5.0069 3.37915 5.0069 3.3453 5.0069 3.31146C5.0069 2.84137 5.0069 1.27694 5.0069 0.806856C5.0069 0.77301 4.96897 0.739164 4.96897 0.712839C4.93103 0.690275 4.8931 0.675232 4.85517 0.675232C4.47586 0.675232 3.3 0.675232 2.92069 0.675232C2.88276 0.675232 2.84483 0.690275 2.8069 0.712839C2.8069 0.739164 2.76897 0.77301 2.76897 0.806856C2.76897 1.27694 2.76897 2.84137 2.76897 3.31146C2.76897 3.3453 2.76897 3.37915 2.73103 3.40547C2.73103 3.4318 2.6931 3.44308 2.65517 3.44308H0.113793C0.0758621 3.44308 0.037931 3.45811 0.037931 3.48443C0 3.507 0 3.54084 0 3.57845C0 3.96956 0 5.11285 0 5.50396C0 5.54157 0 5.57542 0.037931 5.59798C0.037931 5.62431 0.0758621 5.63933 0.113793 5.63933C0.606897 5.63933 2.16207 5.63933 2.65517 5.63933C2.6931 5.63933 2.73103 5.65062 2.73103 5.67694C2.76897 5.70327 2.76897 5.73711 2.76897 5.77096C2.76897 6.24104 2.76897 7.80547 2.76897 8.27556C2.76897 8.30941 2.8069 8.34325 2.8069 8.36958C2.84483 8.3959 2.88276 8.40718 2.92069 8.40718C3.3 8.40718 4.47586 8.40718 4.85517 8.40718C4.8931 8.40718 4.93103 8.3959 4.96897 8.36958C4.96897 8.34325 5.0069 8.30941 5.0069 8.27556C5.0069 7.80547 5.0069 6.24104 5.0069 5.77096C5.0069 5.73711 5.0069 5.70327 5.04483 5.67694C5.04483 5.65062 5.08276 5.63933 5.12069 5.63933C5.61379 5.63933 7.16897 5.63933 7.66207 5.63933C7.7 5.63933 7.73793 5.62431 7.73793 5.59798C7.77586 5.57542 7.77586 5.54157 7.77586 5.50396C7.77586 5.11285 7.77586 3.96956 7.77586 3.57845C7.77586 3.54084 7.77586 3.507 7.73793 3.48443C7.73793 3.45811 7.7 3.44308 7.66207 3.44308C7.16897 3.44308 5.61379 3.44308 5.12069 3.44308Z" fill="white"/>
</svg>
