<svg width="24" height="24" viewBox="0 0 24 24" fill="none" xmlns="http://www.w3.org/2000/svg">
<path d="M2.57823 1.7699C2.57823 1.52324 2.48024 1.2867 2.30584 1.11229C2.13143 0.937878 1.89488 0.839896 1.64823 0.839896C1.40157 0.839896 1.16503 0.937878 0.990617 1.11229C0.816208 1.2867 0.718225 1.52324 0.718225 1.7699V22.2299C0.718225 22.4765 0.816208 22.7131 0.990617 22.8875C1.16503 23.0619 1.40157 23.1599 1.64823 23.1599C1.89488 23.1599 2.13143 23.0619 2.30584 22.8875C2.48024 22.7131 2.57823 22.4765 2.57823 22.2299V1.7699ZM23.041 3.16862C23.041 1.30676 20.9615 0.200056 19.4168 1.24073L6.39402 10.0125C6.07936 10.2246 5.82141 10.5106 5.64269 10.8453C5.46397 11.1801 5.36991 11.5535 5.36871 11.933C5.36752 12.3125 5.45923 12.6865 5.63585 13.0224C5.81246 13.3582 6.06861 13.6458 6.38193 13.8599L19.4047 22.7507C20.9485 23.8035 23.041 22.6986 23.041 20.8293V3.17048V3.16862Z" fill="white"/>
</svg>
