<svg width="22" height="23" viewBox="0 0 22 23" fill="none" xmlns="http://www.w3.org/2000/svg">
<path fill-rule="evenodd" clip-rule="evenodd" d="M21.088 20.0859C21.088 19.9991 21.021 19.934 20.9373 19.934C19.2009 19.934 2.75727 19.934 1.02086 19.934C0.941363 19.934 0.874417 19.9991 0.874417 20.0859C0.874417 20.5375 0.874417 21.8574 0.874417 22.3133C0.874417 22.3958 0.941363 22.4653 1.02086 22.4653C2.75727 22.4653 19.2009 22.4653 20.9373 22.4653C21.021 22.4653 21.088 22.3958 21.088 22.3133V20.0859ZM21.088 13.1998C21.088 13.1173 21.021 13.0479 20.9373 13.0479C19.2009 13.0479 2.75727 13.0479 1.02086 13.0479C0.941363 13.0479 0.874417 13.1173 0.874417 13.1998C0.874417 13.6557 0.874417 14.9757 0.874417 15.4272C0.874417 15.5097 0.941363 15.5792 1.02086 15.5792C2.75727 15.5792 19.2009 15.5792 20.9373 15.5792C21.021 15.5792 21.088 15.5097 21.088 15.4272V13.1998ZM0 4.44244C0 2.24548 1.71549 0.465271 3.82847 0.465271H18.1506C20.2636 0.465271 22 2.24548 22 4.44244C22 6.63505 20.2636 8.41519 18.1506 8.41519H3.82847C1.71549 8.41519 0 6.63505 0 4.44244ZM2.43921 4.44244C2.43921 3.64354 3.06278 3.0009 3.82847 3.0009H18.1506C18.9163 3.0009 19.5399 3.64354 19.5399 4.44244C19.5399 5.23699 18.9163 5.88388 18.1506 5.88388H3.82847C3.06278 5.88388 2.43921 5.23699 2.43921 4.44244Z" fill="white"/>
</svg>
