<svg width="23" height="23" viewBox="0 0 23 23" fill="none" xmlns="http://www.w3.org/2000/svg">
<path fill-rule="evenodd" clip-rule="evenodd" d="M11.8977 0.808899C5.85052 0.808899 0.91629 5.73692 0.91629 11.8071C0.91629 17.8772 5.85052 22.8089 11.8977 22.8089C17.9821 22.8089 22.9163 17.8772 22.9163 11.8071C22.9163 5.73692 17.9821 0.808899 11.8977 0.808899ZM11.8977 2.97443C16.7949 2.97443 20.7645 6.93093 20.7645 11.8071C20.7645 16.6832 16.7949 20.6434 11.8977 20.6434C7.03771 20.6434 3.06806 16.6832 3.06806 11.8071C3.06806 6.93093 7.03771 2.97443 11.8977 2.97443ZM8.03939 12.8898H16.8691V10.728H6.96351V12.8898H8.03939Z" fill="white"/>
</svg>
