<svg width="21" height="23" viewBox="0 0 21 23" fill="none" xmlns="http://www.w3.org/2000/svg">
<mask id="path-1-inside-1_4_7" fill="white">
<path d="M10.2432 1.778L1.41382 7.18998V21.4046H7.00803V13.7366H13.5271V21.4046H19.0725V7.1509L10.2432 1.778ZM10.2432 0.499939L20.1112 6.31233V22.4999H12.4885V14.8319H8.04676V22.4999H0.375092V6.3645L10.2432 0.499939Z"/>
</mask>
<path d="M10.2432 1.778L1.41382 7.18998V21.4046H7.00803V13.7366H13.5271V21.4046H19.0725V7.1509L10.2432 1.778ZM10.2432 0.499939L20.1112 6.31233V22.4999H12.4885V14.8319H8.04676V22.4999H0.375092V6.3645L10.2432 0.499939Z" fill="white"/>
<path d="M10.2432 1.778L11.8027 -0.784778L10.2375 -1.73725L8.67541 -0.779746L10.2432 1.778ZM1.41382 7.18998L-0.153956 4.63223L-1.58618 5.51011V7.18998H1.41382ZM1.41382 21.4046H-1.58618V24.4046H1.41382V21.4046ZM7.00803 21.4046V24.4046H10.008V21.4046H7.00803ZM7.00803 13.7366V10.7366H4.00803V13.7366H7.00803ZM13.5271 13.7366H16.5271V10.7366H13.5271V13.7366ZM13.5271 21.4046H10.5271V24.4046H13.5271V21.4046ZM19.0725 21.4046V24.4046H22.0725V21.4046H19.0725ZM19.0725 7.1509H22.0725V5.46469L20.632 4.58812L19.0725 7.1509ZM10.2432 0.499939L11.7657 -2.08499L10.2364 -2.9858L8.71053 -2.07901L10.2432 0.499939ZM20.1112 6.31233H23.1112V4.59764L21.6338 3.72741L20.1112 6.31233ZM20.1112 22.4999V25.4999H23.1112V22.4999H20.1112ZM12.4885 22.4999H9.48845V25.4999H12.4885V22.4999ZM12.4885 14.8319H15.4885V11.8319H12.4885V14.8319ZM8.04676 14.8319V11.8319H5.04676V14.8319H8.04676ZM8.04676 22.4999V25.4999H11.0468V22.4999H8.04676ZM0.375092 22.4999H-2.62491V25.4999H0.375092V22.4999ZM0.375092 6.3645L-1.15756 3.78555L-2.62491 4.65759V6.3645H0.375092ZM8.67541 -0.779746L-0.153956 4.63223L2.9816 9.74773L11.811 4.33575L8.67541 -0.779746ZM-1.58618 7.18998V21.4046H4.41382V7.18998H-1.58618ZM1.41382 24.4046H7.00803V18.4046H1.41382V24.4046ZM10.008 21.4046V13.7366H4.00803V21.4046H10.008ZM7.00803 16.7366H13.5271V10.7366H7.00803V16.7366ZM10.5271 13.7366V21.4046H16.5271V13.7366H10.5271ZM13.5271 24.4046H19.0725V18.4046H13.5271V24.4046ZM22.0725 21.4046V7.1509H16.0725V21.4046H22.0725ZM20.632 4.58812L11.8027 -0.784778L8.68365 4.34078L17.5129 9.71368L20.632 4.58812ZM8.72064 3.08486L18.5887 8.89726L21.6338 3.72741L11.7657 -2.08499L8.72064 3.08486ZM17.1112 6.31233V22.4999H23.1112V6.31233H17.1112ZM20.1112 19.4999H12.4885V25.4999H20.1112V19.4999ZM15.4885 22.4999V14.8319H9.48845V22.4999H15.4885ZM12.4885 11.8319H8.04676V17.8319H12.4885V11.8319ZM5.04676 14.8319V22.4999H11.0468V14.8319H5.04676ZM8.04676 19.4999H0.375092V25.4999H8.04676V19.4999ZM3.37509 22.4999V6.3645H-2.62491V22.4999H3.37509ZM1.90775 8.94345L11.7758 3.07889L8.71053 -2.07901L-1.15756 3.78555L1.90775 8.94345Z" fill="#FEFEFE" mask="url(#path-1-inside-1_4_7)"/>
</svg>
