<svg width="23" height="23" viewBox="0 0 23 23" fill="none" xmlns="http://www.w3.org/2000/svg">
<path fill-rule="evenodd" clip-rule="evenodd" d="M7.02733 12.4013C6.87018 12.9016 6.47733 13.2523 6.04518 13.5832C5.37733 14.0796 4.59161 14.509 3.84518 15.033C2.03804 16.278 0.348755 17.9603 0.348755 21.5534V22.7039H14.3738L12.9202 20.5173L2.74518 20.403C3.09875 18.1376 4.67018 17.2039 6.04518 16.3489C7.53804 15.4113 8.83447 14.4815 9.26661 12.9252C9.46304 12.2752 9.26661 11.5621 8.7559 10.7899C8.12733 9.92705 6.90947 8.85146 6.90947 7.03126C6.90947 4.68313 8.71661 3.00479 10.838 3.00479H10.8773C13.038 3.02055 14.8059 4.69101 14.8059 7.03126C14.8059 8.84358 13.588 9.92313 12.9988 10.7859C12.4488 11.5621 12.2523 12.2752 12.4488 12.9252C12.6059 13.528 12.9202 14.0402 13.313 14.4894L14.0202 15.3679L15.788 13.8826L15.0416 13.004C14.8845 12.8267 14.7666 12.6298 14.688 12.4013C14.7273 12.3304 14.8059 12.1885 14.8452 12.0979C15.0416 11.8221 15.3166 11.5227 15.5523 11.1878C16.338 10.1477 17.1238 8.83176 17.1238 7.03126C17.1238 3.34753 14.2559 0.727557 10.9166 0.703918H10.8773C7.45947 0.703918 4.59161 3.33177 4.59161 7.03126C4.59161 8.83964 5.37733 10.1555 6.16304 11.1917C6.43804 11.5266 6.67376 11.8261 6.87018 12.1019C6.90947 12.1925 6.98804 12.3304 7.02733 12.4013ZM20.0309 15.3876H19.2059C17.4773 15.3876 16.063 16.7942 16.063 18.5277C16.063 20.2612 17.4773 21.6677 19.2059 21.6677C20.9345 21.6677 22.3488 20.2612 22.3488 18.5277C22.3488 18.4528 22.3488 18.378 22.3095 18.3071C22.3488 18.2322 22.3488 18.1613 22.3488 18.0825V10.7268C22.3488 10.0925 21.838 9.57637 21.2095 9.57637C20.5809 9.57637 20.0309 10.0925 20.0309 10.7268V15.3876ZM20.0309 17.6846H19.2059C18.7345 17.6846 18.3809 18.0628 18.3809 18.5277C18.3809 18.9926 18.7345 19.3708 19.2059 19.3708C19.6773 19.3708 20.0309 18.9926 20.0309 18.5277C20.0309 18.4528 20.0702 18.378 20.0702 18.3071C20.0702 18.2322 20.0309 18.1613 20.0309 18.0825V17.6846Z" fill="white"/>
</svg>
