<svg width="14" height="13" viewBox="0 0 14 13" fill="none" xmlns="http://www.w3.org/2000/svg">
<path fill-rule="evenodd" clip-rule="evenodd" d="M1.07857 6.71974C1.07857 6.71974 4.81752 10.9861 6.07942 12.4169C6.28974 12.6787 6.64026 12.8298 6.99079 12.8298C7.36469 12.8298 7.69184 12.6787 7.92553 12.4169C8.88364 11.3212 11.3607 8.52007 12.9264 6.71974C13.9546 5.54159 14.2818 3.93325 13.7443 2.48445C13.3704 1.48363 12.5759 0.680345 11.5476 0.277704C10.5194 -0.124937 9.35101 -0.0882724 8.34616 0.378142L6.99079 1.00522L5.65879 0.378142C4.65394 -0.0882724 3.48552 -0.124937 2.45731 0.277704C1.42909 0.680345 0.634567 1.48363 0.260671 2.48445C-0.276804 3.93325 0.0269865 5.54159 1.07857 6.71974ZM7.10763 11.3252C7.08426 11.3566 7.03753 11.3748 6.99079 11.3748C6.96742 11.3748 6.92068 11.3566 6.89732 11.3252C6.14953 10.4973 2.10678 5.88868 2.10678 5.88868C1.38236 5.06074 1.17204 3.93036 1.54594 2.91199C1.77962 2.26114 2.29373 1.73872 2.97141 1.47674C3.6491 1.21498 4.39689 1.23876 5.05121 1.54229C5.96258 1.96382 6.71037 2.30891 6.71037 2.30891C6.89732 2.3969 7.10763 2.3969 7.29458 2.30891L8.95374 1.54229C9.58469 1.23876 10.3559 1.21498 11.0335 1.47674C11.6879 1.73872 12.2253 2.26114 12.459 2.91199C12.8329 3.93036 12.6226 5.06074 11.8748 5.88868C11.8748 5.88868 7.83206 10.4973 7.10763 11.3252Z" fill="white"/>
<circle cx="4.5" cy="4.5" r="3.5" fill="white"/>
<circle cx="9.5" cy="4.5" r="3.5" fill="white"/>
<ellipse cx="7" cy="8" rx="3" ry="4" fill="white"/>
</svg>
