<svg width="23" height="23" viewBox="0 0 23 23" fill="none" xmlns="http://www.w3.org/2000/svg">
<path d="M18.1263 10.6004C18.8866 9.40634 19.1414 7.95919 18.8347 6.57728C18.528 5.19537 17.6849 3.99189 16.4909 3.2316C15.2969 2.4713 13.8498 2.21647 12.4679 2.52316C11.0859 2.82985 9.88246 3.67294 9.12217 4.86696L9.0811 4.92169L9.04888 4.98206C8.31151 6.16433 8.06799 7.58891 8.37076 8.94899C8.41076 9.13567 8.46178 9.31982 8.52356 9.50046L4.74405 18.0938C4.62953 18.3537 4.61199 18.6461 4.69463 18.9179C4.77727 19.1897 4.9546 19.4229 5.19445 19.5751L6.46052 20.3813C6.69991 20.5342 6.9862 20.5963 7.26744 20.5562C7.54867 20.5161 7.80621 20.3765 7.99333 20.1627L14.181 13.1029C14.3708 13.0824 14.5593 13.0508 14.7454 13.008C16.1058 12.707 17.2937 11.8837 18.053 10.7155L18.0941 10.6607L18.1263 10.6004ZM17.6451 6.89071C17.8406 7.76635 17.7448 8.68186 17.3723 9.49808L10.4399 5.08387C10.9415 4.49738 11.5968 4.06243 12.3321 3.8279C13.0673 3.59338 13.8534 3.56858 14.602 3.7563C15.3505 3.94402 16.0319 4.33681 16.5695 4.89053C17.1071 5.44424 17.4796 6.13692 17.6451 6.89071ZM7.09756 19.3808L5.83149 18.5747L9.22355 10.8732C10.034 12.0179 11.261 12.7991 12.641 13.0493L7.09756 19.3808ZM9.53006 8.6917C9.33461 7.81606 9.43041 6.90055 9.80287 6.08433L10.4399 5.08387L17.3723 9.49808C16.8707 10.0846 15.5784 11.52 14.8431 11.7545C14.1079 11.989 13.3218 12.0138 12.5732 11.8261C11.8246 11.6384 11.1432 11.2456 10.6057 10.6919C10.0681 10.1382 9.69558 9.44549 9.53006 8.6917Z" fill="white"/>
</svg>
