<svg width="22" height="22" viewBox="0 0 22 22" fill="none" xmlns="http://www.w3.org/2000/svg">
<path d="M18.5055 10.3321C19.3563 8.99606 19.6414 7.37675 19.2982 5.83042C18.9551 4.2841 18.0117 2.93744 16.6756 2.08668C15.3395 1.23593 13.7202 0.95078 12.1739 1.29396C10.6275 1.63714 9.28087 2.58053 8.43012 3.91661L8.38416 3.97785L8.34811 4.0454C7.52302 5.36833 7.25052 6.96241 7.58932 8.4843C7.63407 8.69319 7.69116 8.89925 7.7603 9.10139L3.53112 18.7171C3.40297 19.008 3.38335 19.3352 3.47582 19.6393C3.56829 19.9434 3.76672 20.2043 4.0351 20.3747L5.4518 21.2768C5.71968 21.4479 6.04003 21.5173 6.35472 21.4725C6.66942 21.4276 6.9576 21.2714 7.16698 21.0322L14.0909 13.1324C14.3033 13.1095 14.5141 13.0741 14.7223 13.0263C16.2447 12.6895 17.5738 11.7682 18.4235 10.4609L18.4695 10.3997L18.5055 10.3321ZM17.9671 6.18114C18.1858 7.16096 18.0786 8.1854 17.6618 9.09872L9.90465 4.15933C10.466 3.50306 11.1992 3.01636 12.0219 2.75393C12.8446 2.49151 13.7243 2.46376 14.5619 2.67381C15.3995 2.88387 16.162 3.32339 16.7635 3.94298C17.3651 4.56257 17.7819 5.33767 17.9671 6.18114ZM6.16464 20.1573L4.74794 19.2552L8.54356 10.6375C9.45047 11.9183 10.8234 12.7925 12.3677 13.0725L6.16464 20.1573ZM8.88654 8.1964C8.66784 7.21658 8.77503 6.19215 9.19181 5.27882L9.90465 4.15933L17.6618 9.09872C17.1005 9.755 15.6544 11.3612 14.8317 11.6236C14.009 11.886 13.1294 11.9138 12.2917 11.7037C11.4541 11.4937 10.6917 11.0542 10.0901 10.4346C9.48856 9.81497 9.07175 9.03988 8.88654 8.1964Z" fill="white"/>
</svg>
