<svg width="48" height="48" viewBox="0 0 48 48" fill="none" xmlns="http://www.w3.org/2000/svg">
<path d="M0 5C0 2.23858 2.23858 0 5 0H43C45.7614 0 48 2.23858 48 5V43C48 45.7614 45.7614 48 43 48H5C2.23858 48 0 45.7614 0 43V5Z" fill="url(#paint0_linear_2_625)"/>
<path d="M24 31.0125L22.9125 30.0225C19.05 26.52 16.5 24.2025 16.5 21.375C16.5 19.0575 18.315 17.25 20.625 17.25C21.93 17.25 23.1825 17.8575 24 18.81C24.8175 17.8575 26.07 17.25 27.375 17.25C29.685 17.25 31.5 19.0575 31.5 21.375C31.5 24.2025 28.95 26.52 25.0875 30.0225L24 31.0125Z" fill="white"/>
<defs>
<linearGradient id="paint0_linear_2_625" x1="1.125" y1="2.625" x2="49.875" y2="51" gradientUnits="userSpaceOnUse">
<stop stop-color="#C900DB"/>
<stop offset="0.6" stop-color="#4F47AB"/>
<stop offset="1" stop-color="#02738C"/>
</linearGradient>
</defs>
</svg>
