<svg width="23" height="24" viewBox="0 0 23 24" fill="none" xmlns="http://www.w3.org/2000/svg">
<path d="M20.4618 1.7699C20.4618 1.52324 20.5598 1.2867 20.7342 1.11229C20.9086 0.937878 21.1452 0.839896 21.3918 0.839896C21.6385 0.839896 21.875 0.937878 22.0494 1.11229C22.2238 1.2867 22.3218 1.52324 22.3218 1.7699V22.2299C22.3218 22.4765 22.2238 22.7131 22.0494 22.8875C21.875 23.0619 21.6385 23.1599 21.3918 23.1599C21.1452 23.1599 20.9086 23.0619 20.7342 22.8875C20.5598 22.7131 20.4618 22.4765 20.4618 22.2299V1.7699ZM-0.000976562 3.16862C-0.000976562 1.30676 2.0785 0.200056 3.62323 1.24073L16.646 10.0125C16.9607 10.2246 17.2186 10.5106 17.3973 10.8453C17.5761 11.1801 17.6701 11.5535 17.6713 11.933C17.6725 12.3125 17.5808 12.6865 17.4042 13.0224C17.2276 13.3582 16.9714 13.6458 16.6581 13.8599L3.63532 22.7507C2.09152 23.8035 -0.000976562 22.6986 -0.000976562 20.8293V3.17048V3.16862Z" fill="white"/>
</svg>
