<svg width="16" height="16" viewBox="0 0 16 16" fill="none" xmlns="http://www.w3.org/2000/svg">
<g clip-path="url(#clip0_2_494)">
<path d="M8.00006 1.5C6.93919 1.5 5.92178 1.92143 5.17163 2.67157C4.42149 3.42172 4.00006 4.43913 4.00006 5.5V8.77C3.99985 8.90093 3.96538 9.02953 3.90006 9.143L2.25506 12H13.7451L12.1001 9.142C12.0346 9.02823 12.0001 8.89927 12.0001 8.768V5.5C12.0001 4.43913 11.5786 3.42172 10.8285 2.67157C10.0783 1.92143 9.06092 1.5 8.00006 1.5ZM2.50006 5.5C2.50006 4.04131 3.07952 2.64236 4.11097 1.61091C5.14242 0.579463 6.54137 0 8.00006 0C9.45875 0 10.8577 0.579463 11.8891 1.61091C12.9206 2.64236 13.5001 4.04131 13.5001 5.5V8.567L15.6931 12.376C15.7587 12.49 15.7931 12.6193 15.793 12.7508C15.7928 12.8824 15.7581 13.0116 15.6922 13.1255C15.6264 13.2393 15.5317 13.3339 15.4178 13.3996C15.3038 13.4654 15.1746 13.5 15.0431 13.5H10.5001C10.5001 14.163 10.2367 14.7989 9.76783 15.2678C9.29898 15.7366 8.6631 16 8.00006 16C7.33702 16 6.70113 15.7366 6.23229 15.2678C5.76345 14.7989 5.50006 14.163 5.50006 13.5H0.957058C0.825511 13.5 0.696283 13.4654 0.582341 13.3996C0.4684 13.3339 0.373753 13.2393 0.307899 13.1255C0.242045 13.0116 0.207301 12.8824 0.207154 12.7508C0.207006 12.6193 0.24146 12.49 0.307058 12.376L2.50006 8.569V5.5ZM7.00006 13.5C7.00006 13.7652 7.10542 14.0196 7.29295 14.2071C7.48049 14.3946 7.73484 14.5 8.00006 14.5C8.26528 14.5 8.51963 14.3946 8.70716 14.2071C8.8947 14.0196 9.00006 13.7652 9.00006 13.5H7.00006Z" fill="white"/>
</g>
<defs>
<clipPath id="clip0_2_494">
<rect width="16" height="16" fill="white"/>
</clipPath>
</defs>
</svg>
