<svg width="49" height="49" viewBox="0 0 49 49" fill="none" xmlns="http://www.w3.org/2000/svg">
<path fill-rule="evenodd" clip-rule="evenodd" d="M24.165 0C37.5028 0 48.33 10.827 48.33 24.1631C48.33 37.4996 37.5028 48.3265 24.165 48.3265C10.8272 48.3265 0 37.4996 0 24.1631C0 10.827 10.8272 0 24.165 0ZM21.3405 14.5038C21.3405 13.9664 20.8698 13.5299 20.3598 13.5299H16.28C15.7308 13.5299 15.2993 13.9664 15.2993 14.5038V33.7039C15.2993 34.2417 15.7308 34.6782 16.28 34.6782H20.3598C20.8698 34.6782 21.3405 34.2417 21.3405 33.7039V14.5038ZM33.423 14.5038C33.423 13.9664 32.9915 13.5299 32.4423 13.5299H28.3625C27.8133 13.5299 27.3818 13.9664 27.3818 14.5038V33.7039C27.3818 34.2417 27.8133 34.6782 28.3625 34.6782H32.4423C32.9915 34.6782 33.423 34.2417 33.423 33.7039V14.5038Z" fill="white"/>
</svg>
