<svg width="24" height="24" viewBox="0 0 24 24" fill="none" xmlns="http://www.w3.org/2000/svg">
<path d="M19.5 18.0038H4.5C4.1023 18.0034 3.721 17.8452 3.43978 17.564C3.15856 17.2828 3.0004 16.9015 3 16.5038V6.00375C3.0004 5.60605 3.15856 5.22475 3.43978 4.94353C3.721 4.66231 4.1023 4.50415 4.5 4.50375H19.5C19.8977 4.50415 20.279 4.66231 20.5602 4.94353C20.8414 5.22475 20.9996 5.60605 21 6.00375V16.5038C20.9994 16.9014 20.8412 17.2826 20.56 17.5638C20.2788 17.8449 19.8976 18.0032 19.5 18.0038ZM4.5 6.00375V16.5038H19.5V6.00375H4.5Z" fill="white"/>
<path d="M1.5 19.5037H22.5V21.0037H1.5V19.5037Z" fill="white"/>
</svg>
