<svg width="22" height="17" viewBox="0 0 22 17" fill="none" xmlns="http://www.w3.org/2000/svg">
<path d="M18.5 14.0038H3.5C3.1023 14.0034 2.721 13.8452 2.43978 13.564C2.15856 13.2828 2.0004 12.9015 2 12.5038V2.00375C2.0004 1.60605 2.15856 1.22475 2.43978 0.943532C2.721 0.662313 3.1023 0.504151 3.5 0.503754H18.5C18.8977 0.504151 19.279 0.662313 19.5602 0.943532C19.8414 1.22475 19.9996 1.60605 20 2.00375V12.5038C19.9994 12.9014 19.8412 13.2826 19.56 13.5638C19.2788 13.8449 18.8976 14.0032 18.5 14.0038V14.0038ZM3.5 2.00375V12.5038H18.5V2.00375H3.5Z" fill="white"/>
<path d="M0.5 15.5038H21.5V17.0038H0.5V15.5038Z" fill="white"/>
</svg>
