<svg width="50" height="50" viewBox="0 0 50 50" fill="none" xmlns="http://www.w3.org/2000/svg">
<path d="M24.9999 0.833435C20.2202 0.833435 15.5478 2.25079 11.5736 4.90625C7.59946 7.56172 4.50196 11.336 2.67284 15.7519C0.843723 20.1678 0.365142 25.0269 1.29762 29.7148C2.23009 34.4027 4.53175 38.7087 7.91152 42.0885C11.2913 45.4683 15.5974 47.7699 20.2852 48.7024C24.9731 49.6349 29.8322 49.1563 34.2481 47.3272C38.664 45.4981 42.4383 42.4006 45.0938 38.4264C47.7492 34.4522 49.1666 29.7798 49.1666 25.0001C49.1666 21.8265 48.5415 18.684 47.327 15.7519C46.1125 12.8199 44.3324 10.1558 42.0883 7.91169C39.8443 5.6676 37.1801 3.8875 34.2481 2.67301C31.3161 1.45852 28.1735 0.833435 24.9999 0.833435ZM20.1666 35.8751V14.1251L34.6666 25.0001L20.1666 35.8751Z" fill="white"/>
</svg>
