<svg width="26" height="27" viewBox="0 0 26 27" fill="none" xmlns="http://www.w3.org/2000/svg">
<path d="M12.2383 4.35938H13.7617C13.8971 4.35938 13.9648 4.42708 13.9648 4.5625V22.4375C13.9648 22.5729 13.8971 22.6406 13.7617 22.6406H12.2383C12.1029 22.6406 12.0352 22.5729 12.0352 22.4375V4.5625C12.0352 4.42708 12.1029 4.35938 12.2383 4.35938Z" fill="white"/>
<path d="M4.46875 12.5352H21.5312C21.6667 12.5352 21.7344 12.6029 21.7344 12.7383V14.2617C21.7344 14.3971 21.6667 14.4648 21.5312 14.4648H4.46875C4.33333 14.4648 4.26562 14.3971 4.26562 14.2617V12.7383C4.26562 12.6029 4.33333 12.5352 4.46875 12.5352Z" fill="white"/>
</svg>
