<svg width="22" height="23" viewBox="0 0 22 23" fill="none" xmlns="http://www.w3.org/2000/svg">
<path d="M10.3063 0.359375H12.2249C12.3955 0.359375 12.4807 0.444646 12.4807 0.615189V23.1268C12.4807 23.2974 12.3955 23.3826 12.2249 23.3826H10.3063C10.1358 23.3826 10.0505 23.2974 10.0505 23.1268V0.615189C10.0505 0.444646 10.1358 0.359375 10.3063 0.359375Z" fill="white"/>
<path d="M0.521439 10.6559H22.0098C22.1804 10.6559 22.2656 10.7412 22.2656 10.9117V12.8303C22.2656 13.0008 22.1804 13.0861 22.0098 13.0861H0.521439C0.350896 13.0861 0.265625 13.0008 0.265625 12.8303V10.9117C0.265625 10.7412 0.350896 10.6559 0.521439 10.6559Z" fill="white"/>
</svg>
