<svg width="26" height="22" viewBox="0 0 26 22" fill="none" xmlns="http://www.w3.org/2000/svg">
<path d="M25.628 16.852C25.7145 16.9384 25.7831 17.041 25.8299 17.1539C25.8767 17.2668 25.9008 17.3878 25.9008 17.51C25.9008 17.6322 25.8767 17.7532 25.8299 17.8661C25.7831 17.979 25.7145 18.0816 25.628 18.168L22.838 20.958C22.7079 21.0882 22.5422 21.1769 22.3617 21.2128C22.1812 21.2488 21.9941 21.2304 21.824 21.1599C21.654 21.0895 21.5087 20.9701 21.4065 20.8171C21.3044 20.664 21.2499 20.4841 21.25 20.3V18.44C19.9366 18.4216 18.6459 18.0949 17.4818 17.4863C16.3178 16.8777 15.3129 16.0042 14.5482 14.9362L9.69828 8.14724C9.09542 7.3045 8.30043 6.61755 7.37918 6.14327C6.45793 5.669 5.43693 5.42107 4.40076 5.42001H1.72004C1.47339 5.42001 1.23684 5.32203 1.06243 5.14762C0.888021 4.97321 0.790039 4.73666 0.790039 4.49001C0.790039 4.24336 0.888021 4.00681 1.06243 3.8324C1.23684 3.65799 1.47339 3.56001 1.72004 3.56001H4.40076C5.73286 3.56112 7.04552 3.87963 8.22999 4.48915C9.41446 5.09867 10.4366 5.98165 11.2119 7.06495L16.0618 13.854C16.6538 14.6818 17.4314 15.3595 18.3323 15.8329C19.2332 16.3062 20.2325 16.5621 21.25 16.58V14.72C21.2499 14.536 21.3044 14.356 21.4065 14.2029C21.5087 14.0499 21.654 13.9306 21.824 13.8601C21.9941 13.7897 22.1812 13.7712 22.3617 13.8072C22.5422 13.8431 22.7079 13.9318 22.838 14.062L25.628 16.852ZM14.6238 8.55876C14.7232 8.62975 14.8356 8.68047 14.9545 8.70802C15.0735 8.73558 15.1968 8.73943 15.3172 8.71935C15.4377 8.69927 15.5531 8.65566 15.6567 8.591C15.7603 8.52635 15.8502 8.44192 15.9211 8.34254L16.0606 8.1484C16.6525 7.31999 17.4302 6.64172 18.3313 6.16793C19.2325 5.69414 20.2321 5.43799 21.25 5.42001V7.28001C21.2499 7.46406 21.3044 7.644 21.4065 7.79708C21.5087 7.95015 21.654 8.06946 21.824 8.13991C21.9941 8.21036 22.1812 8.22878 22.3617 8.19283C22.5422 8.15689 22.7079 8.0682 22.838 7.93799L25.628 5.14799C25.7145 5.06162 25.7831 4.95905 25.8299 4.84615C25.8767 4.73325 25.9008 4.61223 25.9008 4.49001C25.9008 4.3678 25.8767 4.24678 25.8299 4.13388C25.7831 4.02098 25.7145 3.91841 25.628 3.83204L22.838 1.04204C22.7079 0.911826 22.5422 0.823135 22.3617 0.78719C22.1812 0.751245 21.9941 0.769663 21.824 0.840113C21.654 0.910563 21.5087 1.02988 21.4065 1.18295C21.3044 1.33602 21.2499 1.51597 21.25 1.70001V3.56001C19.9366 3.57846 18.6459 3.90513 17.4818 4.51371C16.3178 5.1223 15.3129 5.99578 14.5482 7.06379L14.4087 7.25792C14.3371 7.35735 14.2859 7.46995 14.258 7.58924C14.23 7.70853 14.2259 7.83216 14.2459 7.95304C14.2659 8.07392 14.3096 8.18966 14.3744 8.29361C14.4393 8.39756 14.524 8.48767 14.6238 8.55876ZM11.1363 13.4413C11.0369 13.3703 10.9245 13.3196 10.8055 13.292C10.6865 13.2644 10.5633 13.2606 10.4428 13.2807C10.3224 13.3008 10.207 13.3444 10.1034 13.409C9.99979 13.4737 9.90992 13.5581 9.83894 13.6575L9.69944 13.8516C9.09659 14.6947 8.30148 15.382 7.38 15.8565C6.45852 16.331 5.43723 16.579 4.40076 16.58H1.72004C1.47339 16.58 1.23684 16.678 1.06243 16.8524C0.888021 17.0268 0.790039 17.2634 0.790039 17.51C0.790039 17.7567 0.888021 17.9932 1.06243 18.1676C1.23684 18.342 1.47339 18.44 1.72004 18.44H4.40076C5.73286 18.4389 7.04552 18.1204 8.22999 17.5109C9.41446 16.9014 10.4366 16.0184 11.2119 14.9351L11.3514 14.7409C11.4228 14.6415 11.4739 14.529 11.5017 14.4099C11.5295 14.2907 11.5336 14.1672 11.5136 14.0465C11.4936 13.9257 11.45 13.8101 11.3853 13.7063C11.3205 13.6024 11.2359 13.5124 11.1363 13.4413Z" fill="white"/>
</svg>
