<svg width="23" height="24" viewBox="0 0 23 24" fill="none" xmlns="http://www.w3.org/2000/svg">
<path d="M20.2611 6.86262C21.2452 7.89353 21.9125 9.18541 22.1836 10.5846C22.4547 11.9838 22.3182 13.4314 21.7904 14.7553C21.2626 16.0791 20.3656 17.2236 19.2062 18.0524C18.0468 18.8812 16.6737 19.3596 15.2502 19.4306L14.8801 19.4399L8.7551 19.4381L10.8904 21.5752C11.0444 21.7291 11.1396 21.9322 11.1593 22.149C11.1791 22.3659 11.122 22.5828 10.9983 22.7619L10.8904 22.8902C10.7365 23.0443 10.5334 23.1395 10.3166 23.1592C10.0997 23.1789 9.88284 23.1219 9.7037 22.9981L9.57536 22.8902L5.85164 19.1665C5.69787 19.0124 5.60303 18.8092 5.58366 18.5924C5.56429 18.3755 5.6216 18.1588 5.74562 17.9798L5.85164 17.8515L9.57536 14.1278C9.73939 13.963 9.95919 13.8657 10.1914 13.8549C10.4237 13.8442 10.6515 13.9208 10.8301 14.0697C11.0086 14.2186 11.1249 14.429 11.1561 14.6594C11.1872 14.8898 11.1309 15.1235 10.9983 15.3145L10.8904 15.4447L8.7551 17.5781H14.8801C16.3031 17.5782 17.6723 17.0346 18.7078 16.0586C19.7433 15.0826 20.3668 13.7478 20.4508 12.3273L20.4601 11.9999C20.4623 10.5309 19.8833 9.12073 18.8493 8.0772C18.6796 7.90544 18.5833 7.67439 18.5809 7.43292C18.5784 7.19145 18.67 6.9585 18.8362 6.78334C19.0025 6.60817 19.2303 6.50453 19.4716 6.49434C19.7128 6.48414 19.9486 6.56819 20.129 6.7287L20.2629 6.86262H20.2611ZM12.6183 1.00176L12.7485 1.10778L16.4704 4.8315L16.5783 4.9617C16.6854 5.11701 16.7428 5.30124 16.7428 5.48994C16.7428 5.67864 16.6854 5.86288 16.5783 6.01818L16.4704 6.14838L12.7485 9.87024L12.6183 9.97812C12.463 10.0853 12.2788 10.1427 12.0901 10.1427C11.9014 10.1427 11.7171 10.0853 11.5618 9.97812L11.4316 9.87024L11.3256 9.74004C11.2184 9.58474 11.161 9.4005 11.161 9.2118C11.161 9.0231 11.2184 8.83887 11.3256 8.68356L11.4316 8.55336L13.5669 6.41994H7.44008C6.01679 6.41986 4.64727 6.96367 3.61172 7.94009C2.57617 8.91651 1.95288 10.2517 1.86938 11.6726L1.86008 11.9999C1.86008 13.5251 2.47202 14.9053 3.46154 15.9134C3.61824 16.0923 3.70043 16.3245 3.69122 16.5621C3.68201 16.7998 3.5821 17.0249 3.41203 17.1911C3.24196 17.3574 3.01466 17.4522 2.77686 17.456C2.53906 17.4598 2.30883 17.3724 2.1335 17.2117C1.12917 16.1885 0.441839 14.897 0.154202 13.4924C-0.133435 12.0879 -0.00912701 10.6302 0.512171 9.29458C1.03347 7.95902 1.92955 6.80251 3.09262 5.9642C4.25569 5.12589 5.63621 4.64148 7.06808 4.56924L7.44008 4.55994L13.5669 4.55808L11.4316 2.42466L11.3256 2.29446C11.2031 2.11544 11.1471 1.89923 11.1671 1.68323C11.1872 1.46724 11.2821 1.26506 11.4355 1.11167C11.5889 0.958284 11.7911 0.863341 12.0071 0.84327C12.2231 0.823199 12.4393 0.879264 12.6183 1.00176Z" fill="white"/>
</svg>
