<svg width="23" height="23" viewBox="0 0 23 23" fill="none" xmlns="http://www.w3.org/2000/svg">
<path fill-rule="evenodd" clip-rule="evenodd" d="M20.0313 9.83304C20.0768 9.83304 20.1222 9.85182 20.1677 9.88937C20.2131 9.92316 20.2131 9.96816 20.2131 10.017C20.2131 11.3199 20.2131 19.1865 20.2131 20.4894C20.2131 20.5908 20.1222 20.6734 20.0313 20.6734C18.1677 20.6734 5.62223 20.6734 3.75859 20.6734C3.71314 20.6734 3.66769 20.6546 3.62223 20.6208C3.57678 20.587 3.57678 20.5382 3.57678 20.4894C3.57678 19.1865 3.57678 11.3199 3.57678 10.017C3.57678 9.91559 3.66769 9.83304 3.75859 9.83304C4.39496 9.83304 6.03132 9.83304 6.57678 9.83304C6.66769 9.83304 6.71314 9.77297 6.71314 9.70162C6.71314 9.31111 6.71314 8.16584 6.71314 7.77533C6.71314 7.70398 6.66769 7.64391 6.57678 7.64391H2.48587C2.07678 7.64391 1.66769 7.77907 1.3495 8.02314C1.07678 8.26345 0.894958 8.59391 0.894958 8.93561C0.894958 10.4376 0.894958 20.0689 0.894958 21.5709C0.894958 21.9163 1.07678 22.243 1.3495 22.4871C1.66769 22.7274 2.07678 22.8663 2.48587 22.8663C4.53132 22.8663 19.2586 22.8663 21.3041 22.8663C21.7131 22.8663 22.1222 22.7274 22.4404 22.4871C22.7131 22.243 22.895 21.9163 22.895 21.5709C22.895 20.0689 22.895 10.4376 22.895 8.93561C22.895 8.59391 22.7131 8.26345 22.4404 8.02314C22.1222 7.77907 21.7131 7.64391 21.3041 7.64391C21.3041 7.64391 17.9859 7.64391 17.2131 7.64391C17.1677 7.64391 17.1222 7.65892 17.1222 7.68145C17.0768 7.70774 17.0768 7.74153 17.0768 7.77533C17.0768 8.16584 17.0768 9.31111 17.0768 9.70162C17.0768 9.73542 17.0768 9.76921 17.1222 9.79549C17.1222 9.81802 17.1677 9.83304 17.2131 9.83304C17.7586 9.83304 19.395 9.83304 20.0313 9.83304ZM11.895 0.866302C11.9404 0.866302 11.9859 0.881322 12.0313 0.903852C12.7586 1.52717 17.0313 5.03425 17.0313 5.03425C17.5313 5.46231 17.5313 6.15699 17.0313 6.58505C16.5313 6.9643 15.8495 7.00554 15.304 6.71266V6.69388L15.2586 6.69014C15.2131 6.65635 15.1677 6.6226 15.1222 6.58505L13.395 5.16193C13.395 5.13564 13.3495 5.12813 13.304 5.14315C13.2586 5.15817 13.2131 5.19192 13.2131 5.22947C13.2131 6.42353 13.2131 11.763 13.2131 11.763C13.2131 12.3675 12.6222 12.8595 11.895 12.8595C11.1677 12.8595 10.5768 12.3714 10.5768 11.7668C10.5768 11.7668 10.5768 6.43481 10.5768 5.24451C10.5768 5.20696 10.5313 5.16939 10.4859 5.15437C10.4404 5.13935 10.395 5.15068 10.3495 5.17696L8.66769 6.58505C8.62223 6.6226 8.57678 6.65635 8.53132 6.69014L8.48587 6.70892V6.71266C7.94041 7.00554 7.2586 6.9643 6.80405 6.58505C6.2586 6.15699 6.2586 5.46231 6.80405 5.03425C6.80405 5.03425 11.0313 1.52717 11.804 0.903852C11.804 0.881322 11.8495 0.866302 11.895 0.866302Z" fill="white"/>
</svg>
