<svg width="24" height="24" viewBox="0 0 24 24" fill="none" xmlns="http://www.w3.org/2000/svg">
<path d="M15 4.25C15 3.171 13.726 2.6 12.92 3.316L8.427 7.309C8.28986 7.43117 8.11266 7.49878 7.929 7.499H4.25C3.65326 7.499 3.08097 7.73605 2.65901 8.15801C2.23705 8.57996 2 9.15226 2 9.749V14.246C2 14.8427 2.23705 15.415 2.65901 15.837C3.08097 16.2589 3.65326 16.496 4.25 16.496H7.93C8.11366 16.4962 8.29086 16.5638 8.428 16.686L12.919 20.68C13.725 21.396 15 20.824 15 19.746V4.25ZM9.425 8.43L13.5 4.807V19.189L9.425 15.565C9.01319 15.1986 8.48121 14.9961 7.93 14.996H4.25C4.05109 14.996 3.86032 14.917 3.71967 14.7763C3.57902 14.6357 3.5 14.4449 3.5 14.246V9.75C3.5 9.55109 3.57902 9.36032 3.71967 9.21967C3.86032 9.07902 4.05109 9 4.25 9H7.93C8.48121 8.99986 9.01319 8.79738 9.425 8.431V8.43Z" fill="white"/>
</svg>
