<svg width="13" height="18" viewBox="0 0 13 18" fill="none" xmlns="http://www.w3.org/2000/svg">
<path d="M13 1.25C13 0.170998 11.726 -0.400002 10.92 0.315998L6.427 4.309C6.28986 4.43117 6.11266 4.49878 5.929 4.499H2.25C1.65326 4.499 1.08097 4.73605 0.65901 5.15801C0.237053 5.57996 0 6.15226 0 6.749V11.246C0 11.8427 0.237053 12.415 0.65901 12.837C1.08097 13.2589 1.65326 13.496 2.25 13.496H5.93C6.11366 13.4962 6.29086 13.5638 6.428 13.686L10.919 17.68C11.725 18.396 13 17.824 13 16.746V1.25V1.25ZM7.425 5.43L11.5 1.807V16.189L7.425 12.565C7.01319 12.1986 6.48121 11.9961 5.93 11.996H2.25C2.05109 11.996 1.86032 11.917 1.71967 11.7763C1.57902 11.6357 1.5 11.4449 1.5 11.246V6.75C1.5 6.55109 1.57902 6.36032 1.71967 6.21967C1.86032 6.07902 2.05109 6 2.25 6H5.93C6.48121 5.99986 7.01319 5.79738 7.425 5.431V5.43Z" fill="white"/>
</svg>
