<svg width="17" height="18" viewBox="0 0 17 18" fill="none" xmlns="http://www.w3.org/2000/svg">
<path d="M13 1.25C13 0.170998 11.726 -0.400002 10.92 0.315998L6.427 4.309C6.28986 4.43117 6.11266 4.49878 5.929 4.499H2.25C1.65326 4.499 1.08097 4.73605 0.65901 5.15801C0.237053 5.57996 0 6.15226 0 6.749V11.246C0 11.8427 0.237053 12.415 0.65901 12.837C1.08097 13.2589 1.65326 13.496 2.25 13.496H5.93C6.11366 13.4962 6.29086 13.5638 6.428 13.686L10.919 17.68C11.725 18.396 13 17.824 13 16.746V1.25V1.25ZM7.425 5.43L11.5 1.807V16.189L7.425 12.565C7.01319 12.1986 6.48121 11.9961 5.93 11.996H2.25C2.05109 11.996 1.86032 11.917 1.71967 11.7763C1.57902 11.6357 1.5 11.4449 1.5 11.246V6.75C1.5 6.55109 1.57902 6.36032 1.71967 6.21967C1.86032 6.07902 2.05109 6 2.25 6H5.93C6.48121 5.99986 7.01319 5.79738 7.425 5.431V5.43Z" fill="white"/>
<path d="M15.143 5.37C15.2296 5.32303 15.3246 5.29358 15.4226 5.28334C15.5206 5.2731 15.6196 5.28226 15.7141 5.3103C15.8085 5.33835 15.8965 5.38473 15.973 5.44679C16.0495 5.50885 16.1131 5.58537 16.16 5.672C16.696 6.662 17 7.797 17 9C17.0017 10.162 16.7129 11.306 16.16 12.328C16.0653 12.503 15.905 12.6333 15.7143 12.6901C15.5235 12.7469 15.3181 12.7257 15.143 12.631C14.968 12.5363 14.8377 12.376 14.7809 12.1852C14.7241 11.9945 14.7453 11.789 14.84 11.614C15.26 10.837 15.5 9.948 15.5 9C15.5 8.052 15.26 7.163 14.84 6.386C14.7931 6.29933 14.7637 6.20427 14.7535 6.10625C14.7433 6.00822 14.7526 5.90915 14.7807 5.8147C14.8089 5.72025 14.8554 5.63227 14.9175 5.5558C14.9797 5.47932 15.0563 5.41584 15.143 5.369V5.37Z" fill="white"/>
</svg>
