<svg width="24" height="24" viewBox="0 0 24 24" fill="none" xmlns="http://www.w3.org/2000/svg">
<path d="M15 4.25C15 3.171 13.726 2.6 12.92 3.316L8.427 7.309C8.28986 7.43117 8.11266 7.49878 7.929 7.499H4.25C3.65326 7.499 3.08097 7.73605 2.65901 8.15801C2.23705 8.57996 2 9.15226 2 9.749V14.246C2 14.8427 2.23705 15.415 2.65901 15.837C3.08097 16.2589 3.65326 16.496 4.25 16.496H7.93C8.11366 16.4962 8.29086 16.5638 8.428 16.686L12.919 20.68C13.725 21.396 15 20.824 15 19.746V4.25ZM9.425 8.43L13.5 4.807V19.189L9.425 15.565C9.01319 15.1986 8.48121 14.9961 7.93 14.996H4.25C4.05109 14.996 3.86032 14.917 3.71967 14.7763C3.57902 14.6357 3.5 14.4449 3.5 14.246V9.75C3.5 9.55109 3.57902 9.36032 3.71967 9.21967C3.86032 9.07902 4.05109 9 4.25 9H7.93C8.48121 8.99986 9.01319 8.79738 9.425 8.431V8.43Z" fill="white"/>
<path d="M18.992 5.897C19.0712 5.83843 19.1611 5.79603 19.2567 5.77222C19.3523 5.74841 19.4516 5.74366 19.549 5.75824C19.6464 5.77282 19.74 5.80644 19.8244 5.85719C19.9089 5.90793 19.9824 5.97481 20.041 6.054C21.3162 7.77389 22.0031 9.85895 22 12C22.0028 14.1412 21.3155 16.2262 20.04 17.946C19.9192 18.0987 19.7437 18.1985 19.5506 18.2241C19.3576 18.2498 19.1621 18.1994 19.0056 18.0835C18.8491 17.9676 18.7437 17.7954 18.7119 17.6033C18.6801 17.4111 18.7242 17.2142 18.835 17.054C19.9192 15.5923 20.5031 13.8199 20.5 12C20.5031 10.1801 19.9192 8.4077 18.835 6.946C18.7764 6.86681 18.734 6.77687 18.7102 6.68129C18.6864 6.58572 18.6817 6.48639 18.6962 6.38898C18.7108 6.29157 18.7445 6.19799 18.7952 6.11358C18.8459 6.02916 18.9128 5.95557 18.992 5.897Z" fill="white"/>
<path d="M17.143 8.37C17.2296 8.32303 17.3246 8.29358 17.4226 8.28334C17.5206 8.2731 17.6196 8.28226 17.7141 8.3103C17.8085 8.33835 17.8965 8.38473 17.973 8.44679C18.0495 8.50885 18.1131 8.58537 18.16 8.672C18.696 9.662 19 10.797 19 12C19.0017 13.162 18.7129 14.306 18.16 15.328C18.0653 15.503 17.905 15.6333 17.7143 15.6901C17.5235 15.7469 17.3181 15.7257 17.143 15.631C16.968 15.5363 16.8377 15.376 16.7809 15.1852C16.7241 14.9945 16.7453 14.789 16.84 14.614C17.26 13.837 17.5 12.948 17.5 12C17.5 11.052 17.26 10.163 16.84 9.386C16.7931 9.29933 16.7637 9.20427 16.7535 9.10625C16.7433 9.00822 16.7526 8.90915 16.7807 8.8147C16.8089 8.72025 16.8554 8.63227 16.9175 8.5558C16.9797 8.47932 17.0563 8.41584 17.143 8.369V8.37Z" fill="white"/>
</svg>
