<svg width="23" height="18" viewBox="0 0 23 18" fill="none" xmlns="http://www.w3.org/2000/svg">
<path d="M13 1.25C13 0.170998 11.726 -0.400002 10.92 0.315998L6.427 4.309C6.28986 4.43117 6.11266 4.49878 5.929 4.499H2.25C1.65326 4.499 1.08097 4.73605 0.65901 5.15801C0.237053 5.57996 0 6.15226 0 6.749V11.246C0 11.8427 0.237053 12.415 0.65901 12.837C1.08097 13.2589 1.65326 13.496 2.25 13.496H5.93C6.11366 13.4962 6.29086 13.5638 6.428 13.686L10.919 17.68C11.725 18.396 13 17.824 13 16.746V1.25V1.25ZM7.425 5.43L11.5 1.807V16.189L7.425 12.565C7.01319 12.1986 6.48121 11.9961 5.93 11.996H2.25C2.05109 11.996 1.86032 11.917 1.71967 11.7763C1.57902 11.6357 1.5 11.4449 1.5 11.246V6.75C1.5 6.55109 1.57902 6.36032 1.71967 6.21967C1.86032 6.07902 2.05109 6 2.25 6H5.93C6.48121 5.99986 7.01319 5.79738 7.425 5.431V5.43Z" fill="white"/>
<path d="M16.992 2.897C17.0712 2.83843 17.1611 2.79603 17.2567 2.77222C17.3523 2.74841 17.4516 2.74366 17.549 2.75824C17.6464 2.77282 17.74 2.80644 17.8244 2.85719C17.9089 2.90793 17.9824 2.97481 18.041 3.054C19.3162 4.77389 20.0031 6.85895 20 9C20.0028 11.1412 19.3155 13.2262 18.04 14.946C17.9192 15.0987 17.7437 15.1985 17.5506 15.2241C17.3576 15.2498 17.1621 15.1994 17.0056 15.0835C16.8491 14.9676 16.7437 14.7954 16.7119 14.6033C16.6801 14.4111 16.7242 14.2142 16.835 14.054C17.9192 12.5923 18.5031 10.8199 18.5 9C18.5031 7.18009 17.9192 5.4077 16.835 3.946C16.7764 3.86681 16.734 3.77687 16.7102 3.68129C16.6864 3.58572 16.6817 3.48639 16.6962 3.38898C16.7108 3.29157 16.7445 3.19799 16.7952 3.11358C16.8459 3.02916 16.9128 2.95557 16.992 2.897V2.897Z" fill="white"/>
<path d="M20.2754 1.18848C20.3471 1.11339 20.4286 1.05904 20.5152 1.02851C20.6017 0.997991 20.6917 0.991901 20.7799 1.01059C20.8682 1.02928 20.9529 1.07238 21.0294 1.13744C21.1058 1.2025 21.1725 1.28823 21.2256 1.38975C22.3806 3.59462 23.0028 6.26762 23 9.0124C23.0025 11.7573 22.38 14.4303 21.2246 16.635C21.1152 16.8308 20.9562 16.9587 20.7814 16.9916C20.6065 17.0245 20.4295 16.9598 20.2877 16.8113C20.1459 16.6628 20.0505 16.442 20.0217 16.1957C19.9928 15.9494 20.0328 15.6968 20.1332 15.4915C21.1152 13.6177 21.6441 11.3455 21.6413 9.0124C21.6441 6.67931 21.1152 4.40714 20.1332 2.53328C20.0801 2.43176 20.0417 2.31645 20.0201 2.19393C19.9986 2.0714 19.9943 1.94407 20.0075 1.81919C20.0207 1.69432 20.0511 1.57434 20.0971 1.46613C20.1431 1.35791 20.2037 1.26356 20.2754 1.18848V1.18848Z" fill="white"/>
<path d="M15.143 5.37C15.2296 5.32303 15.3246 5.29358 15.4226 5.28334C15.5206 5.2731 15.6196 5.28226 15.7141 5.3103C15.8085 5.33835 15.8965 5.38473 15.973 5.44679C16.0495 5.50885 16.1131 5.58537 16.16 5.672C16.696 6.662 17 7.797 17 9C17.0017 10.162 16.7129 11.306 16.16 12.328C16.0653 12.503 15.905 12.6333 15.7143 12.6901C15.5235 12.7469 15.3181 12.7257 15.143 12.631C14.968 12.5363 14.8377 12.376 14.7809 12.1852C14.7241 11.9945 14.7453 11.789 14.84 11.614C15.26 10.837 15.5 9.948 15.5 9C15.5 8.052 15.26 7.163 14.84 6.386C14.7931 6.29933 14.7637 6.20427 14.7535 6.10625C14.7433 6.00822 14.7526 5.90915 14.7807 5.8147C14.8089 5.72025 14.8554 5.63227 14.9175 5.5558C14.9797 5.47932 15.0563 5.41584 15.143 5.369V5.37Z" fill="white"/>
</svg>
