<svg width="24" height="24" viewBox="0 0 24 24" fill="none" xmlns="http://www.w3.org/2000/svg">
<rect x="4" y="5" width="15" height="14" fill="white"/>
<path d="M10.8134 0.499394C10.9678 0.341314 11.1523 0.215701 11.356 0.12994C11.5596 0.0441791 11.7784 0 11.9994 0C12.2204 0 12.4391 0.0441791 12.6428 0.12994C12.8465 0.215701 13.031 0.341314 13.1854 0.499394L15.6974 3.07139L19.2924 3.02839C19.5135 3.02571 19.7329 3.06728 19.9377 3.15066C20.1425 3.23403 20.3285 3.35753 20.4849 3.51389C20.6413 3.67024 20.7648 3.85629 20.8481 4.06109C20.9315 4.26589 20.9731 4.48529 20.9704 4.70639L20.9274 8.30139L23.4994 10.8134C24.1664 11.4634 24.1664 12.5354 23.4994 13.1854L20.9274 15.6974L20.9704 19.2924C20.9731 19.5135 20.9315 19.7329 20.8481 19.9377C20.7648 20.1425 20.6413 20.3285 20.4849 20.4849C20.3285 20.6413 20.1425 20.7648 19.9377 20.8481C19.7329 20.9315 19.5135 20.9731 19.2924 20.9704L15.6974 20.9274L13.1854 23.4994C13.031 23.6575 12.8465 23.7831 12.6428 23.8688C12.4391 23.9546 12.2204 23.9988 11.9994 23.9988C11.7784 23.9988 11.5596 23.9546 11.356 23.8688C11.1523 23.7831 10.9678 23.6575 10.8134 23.4994L8.30139 20.9274L4.70639 20.9704C4.48529 20.9731 4.26589 20.9315 4.06109 20.8481C3.85629 20.7648 3.67024 20.6413 3.51389 20.4849C3.35753 20.3285 3.23403 20.1425 3.15066 19.9377C3.06728 19.7329 3.02571 19.5135 3.02839 19.2924L3.07139 15.6974L0.499394 13.1854C0.341314 13.031 0.215701 12.8465 0.12994 12.6428C0.0441791 12.4391 0 12.2204 0 11.9994C0 11.7784 0.0441791 11.5596 0.12994 11.356C0.215701 11.1523 0.341314 10.9678 0.499394 10.8134L3.07139 8.30139L3.02839 4.70639C3.02571 4.48529 3.06728 4.26589 3.15066 4.06109C3.23403 3.85629 3.35753 3.67024 3.51389 3.51389C3.67024 3.35753 3.85629 3.23403 4.06109 3.15066C4.26589 3.06728 4.48529 3.02571 4.70639 3.02839L8.30139 3.07139L10.8134 0.499394ZM17.3974 9.61939C17.575 9.42994 17.672 9.17881 17.6678 8.91912C17.6636 8.65944 17.5585 8.41159 17.3748 8.228C17.1911 8.04442 16.9432 7.93951 16.6835 7.93548C16.4238 7.93145 16.1727 8.02861 15.9834 8.20639L9.97239 14.2164L8.07839 12.3234C7.88979 12.1412 7.63719 12.0404 7.37499 12.0427C7.1128 12.045 6.86198 12.1502 6.67658 12.3356C6.49117 12.521 6.386 12.7718 6.38372 13.034C6.38144 13.2962 6.48224 13.5488 6.66439 13.7374L9.97239 17.0454L17.3974 9.62039V9.61939Z" fill="#3D91F4"/>
</svg>
