<svg width="38" height="37" viewBox="0 0 38 37" fill="none" xmlns="http://www.w3.org/2000/svg">
<path d="M11.998 12.5752L13.0752 11.498C13.171 11.4023 13.2667 11.4023 13.3625 11.498L26.002 24.1375C26.0978 24.2333 26.0978 24.329 26.002 24.4248L24.9248 25.502C24.829 25.5978 24.7333 25.5978 24.6375 25.502L11.998 12.8625C11.9022 12.7667 11.9022 12.671 11.998 12.5752Z" fill="white"/>
<path d="M12.2853 23.8503L24.3503 11.7853C24.446 11.6895 24.5418 11.6895 24.6375 11.7853L25.7148 12.8625C25.8105 12.9582 25.8105 13.054 25.7148 13.1498L13.6498 25.2148C13.554 25.3105 13.4583 25.3105 13.3625 25.2148L12.2853 24.1375C12.1895 24.0418 12.1895 23.946 12.2853 23.8503Z" fill="white"/>
</svg>
